<?xml version="1.0" encoding="UTF-8" standalone="no"?>
<!DOCTYPE svg PUBLIC "-//W3C//DTD SVG 1.1//EN" "http://www.w3.org/Graphics/SVG/1.1/DTD/svg11.dtd">
<svg width="100%" height="100%" viewBox="0 0 606 702" version="1.1" xmlns="http://www.w3.org/2000/svg" xmlns:xlink="http://www.w3.org/1999/xlink" xml:space="preserve" xmlns:serif="http://www.serif.com/" style="fill-rule:evenodd;clip-rule:evenodd;stroke-linejoin:round;stroke-miterlimit:2;">
    <g transform="matrix(1,0,0,1,-229.122,-207.076)">
        <g transform="matrix(0.965649,0.25985,-0.321705,1.19551,179.236,-378.192)">
            <path d="M382.88,756.413C386.337,746.057 389.724,732.364 386.531,721.657C380.996,703.1 363.207,675.631 346.372,654.999C328.712,633.356 300.26,612.505 280.875,592.42C270.029,581.182 256.178,569.904 245.427,558.24C238.02,550.203 232.077,541.972 229.391,533.472C222.692,512.276 228.851,479.958 241.925,466.239C248.603,459.232 260.357,453.706 273.023,450.802C285.706,447.894 299.254,447.629 309.403,450.869C317.48,453.449 325.707,459.419 333.427,466.98C344.575,477.898 354.777,492.12 362.297,503.404C374.682,521.99 381.922,549.869 385.548,563.996L390.206,563.26C387.291,547.368 381.783,517.648 376.591,503.051C374.829,498.099 370.941,493.332 367.271,488.74C363.219,483.671 359.439,478.784 358.267,474.173C356.099,465.644 356.728,454.918 363.957,448.46C371.359,441.848 388.93,435.665 403.106,433.352C408.658,432.445 414.987,432.185 421.487,432.251L421.814,429.878L491.793,436.176L491.503,438.277C504.771,439.953 520.829,444.025 535.136,442.026C536.718,441.805 538.367,441.529 540.072,441.204C537.262,428.972 534.916,414.62 536.855,406.643C538.3,400.698 543.128,393.935 548.789,387.874C557.051,379.028 566.975,371.673 569.362,370.408C591.787,358.523 636.5,349.27 682.365,350.898C728.514,352.536 775.677,365.183 802.741,396.492C812.435,407.706 828.406,437.637 831.842,468.254C834.177,489.068 830.681,510.15 816.082,526.107C812.93,529.552 805.424,534.637 796.723,541.701C777.624,557.207 752.484,582.972 760.133,623.827C767.009,660.55 796.924,690.956 828.62,715.262C861.061,740.141 895.474,758.705 910.431,771.006C927.366,784.935 937.064,797.855 935.009,810.772C933.621,819.495 926.946,828.442 912.837,837.785C907.124,841.568 857.556,874.381 840.317,883.97C815.195,897.943 794.085,904.649 775.882,906.95C750.056,910.214 729.928,904.684 712.283,897.878C704.81,894.996 697.807,891.882 690.996,889.184C690.777,890.095 690.527,890.993 690.244,891.874C687.882,899.236 683.182,905.262 676.314,907.729C665.719,911.534 643.449,913.589 617.763,913C615.213,912.942 612.63,912.858 610.021,912.747C597.774,920.687 571.644,931.19 545.545,935.173C526.775,938.037 508.062,937.465 494.243,930.713C478.065,922.809 444.127,893.891 425.154,871.69C416.502,861.565 411.092,852.636 410.986,847.494C410.817,839.287 416.729,831.216 426.386,823.324C439.496,812.609 459.553,801.961 477.487,790.722C488.97,783.527 499.572,776.099 506.632,768.183C511.534,762.687 514.705,756.98 514.942,750.928C515.177,744.906 512.466,738.606 506.046,731.876C477.64,702.101 450.087,695.644 439.104,690.616C407.169,675.996 400.895,642.029 398.111,628.394L397.688,626.319L391.756,627.256L376.771,565.383L379.66,564.926C376.109,551.091 369.11,523.854 357.013,505.701C349.659,494.665 339.702,480.742 328.798,470.063C321.817,463.226 314.501,457.709 307.197,455.376C298.121,452.478 286.004,452.864 274.661,455.464C263.3,458.069 252.669,462.91 246.679,469.195C234.42,482.059 228.923,512.398 235.204,532.273C238.351,542.23 246.386,551.741 255.761,561.059C265.441,570.68 276.568,580.074 285.607,589.44C305.083,609.619 333.639,630.588 351.381,652.332C368.596,673.429 386.704,701.547 392.364,720.522C395.754,731.891 392.3,746.461 388.714,757.433L390.951,757.824L381.511,793.044C382.326,798.102 380.96,802.867 377.985,806.2L377.951,806.327L377.882,806.314C375.996,808.381 373.48,809.881 370.477,810.534C361.663,812.449 351.959,806.354 348.819,796.93C345.679,787.506 350.286,778.3 359.1,776.384C364.553,775.199 370.346,777.08 374.716,780.919L381.355,756.146L382.88,756.413ZM396.101,562.328L398.542,561.943L413.526,623.816L406.524,624.922L406.991,627.211C408.289,633.567 410.275,644.708 415.683,655.96C420.877,666.768 429.243,677.746 443.541,684.292C454.988,689.532 483.569,696.406 513.175,727.438C538.912,754.416 514.8,776.542 483.004,796.466C465.394,807.501 445.659,817.914 432.787,828.434C425.121,834.699 419.85,840.858 419.985,847.373C420.016,848.905 420.813,850.852 422.058,853.144C424.278,857.232 427.964,862.181 432.561,867.561C450.822,888.929 483.33,916.885 498.901,924.493C511.003,930.405 527.437,930.538 543.874,928.03C563.341,925.059 582.866,918.281 595.783,911.898C572.675,910.118 548.78,906.312 529.446,900.14C514.435,903.532 500.473,904.713 487.246,901.127C477.35,898.444 467.802,893.112 458.573,883.876C453.87,879.169 450.964,872.045 451.159,865.419C451.297,860.712 452.991,856.276 456.401,852.98C458.884,850.58 463.996,847.996 470.209,845.676C481.848,841.328 497.443,837.561 502.977,836.21C504.422,834.337 506.65,832.606 509.912,831.139C515.884,828.453 543.339,819.672 568.391,817.746C572.77,817.409 577.069,817.298 581.183,817.457C584.12,816.266 586.869,815.236 589.442,814.349C605.547,808.8 615.373,808.695 621.755,809.975C626.336,810.893 629.311,812.543 631.575,813.832C638.147,817.575 649.159,827.602 654.406,837.772C657.398,839.068 660.32,840.425 663.119,841.835C675.309,847.975 685.119,855.208 688.947,862.607C691.319,867.192 692.548,874.321 692.11,881.56C699.795,884.497 707.685,888.049 716.161,891.318C732.351,897.563 750.793,902.763 774.491,899.768C791.662,897.598 811.515,891.164 835.213,877.983C852.311,868.472 901.464,835.915 907.131,832.163C918.913,824.362 924.924,817.129 926.083,809.846C927.847,798.753 918.552,788.06 904.01,776.1C889.097,763.835 854.769,745.34 822.423,720.534C789.33,695.157 758.413,663.255 751.234,624.915C743.012,580.999 769.814,553.241 790.343,536.574C798.626,529.849 805.843,525.067 808.844,521.786C822.171,507.22 825.01,487.911 822.878,468.91C819.613,439.806 804.577,411.314 795.362,400.654C769.917,371.218 725.359,359.7 681.97,358.161C638.296,356.611 595.653,365.168 574.299,376.486C572.158,377.621 563.385,384.317 555.974,392.252C551.186,397.378 546.909,403.016 545.686,408.043C543.927,415.282 546.015,428.097 548.624,439.309C566.295,434.921 587.499,427.15 602.931,421.894C620.372,415.954 638.927,404.824 653.829,401.555C666.698,398.732 681.161,398.971 693.823,402.35C707.179,405.915 725.254,415.775 734.64,422.942C742.509,428.949 747.545,437.412 750.557,445.813C753.771,454.776 754.261,469.838 754.485,477.371C754.497,477.762 754.393,478.133 754.199,478.464L756.231,478.464L756.231,501.513C757.283,500.985 758.424,500.579 759.644,500.314C768.727,498.34 778.82,504.899 782.17,514.953C785.519,525.007 780.864,534.772 771.781,536.746C764.663,538.293 756.925,534.599 752.298,528.09L746.413,528.09L746.413,478.464L748.773,478.464C748.599,478.167 748.498,477.837 748.487,477.487C748.272,470.25 747.882,455.773 744.794,447.161C742.074,439.575 737.624,431.889 730.519,426.463C721.641,419.685 704.573,410.323 691.94,406.952C680.372,403.864 667.159,403.653 655.401,406.232C640.708,409.455 622.459,420.502 605.262,426.36C589.504,431.727 567.82,439.625 549.783,444.072C552.009,452.842 554.26,459.799 554.65,460.873L555.178,462.331L559.712,461.346L570.773,494.548L553.764,498.245L542.703,465.043L546.485,464.221L546.012,462.915C545.612,461.811 543.425,454.856 541.212,445.961C539.465,446.293 537.777,446.575 536.158,446.802C521.304,448.877 504.609,444.801 490.839,443.091L490.513,445.449L420.535,439.152L420.824,437.058C414.977,437.022 409.308,437.284 404.294,438.102C391.341,440.216 375.171,445.669 368.408,451.711C362.384,457.091 362.339,466.093 364.145,473.199C365.188,477.305 368.703,481.597 372.312,486.112C376.303,491.105 380.441,496.327 382.357,501.713C387.581,516.396 393.144,546.224 396.101,562.328ZM580.566,878.092C579.88,878.163 579.194,878.23 578.51,878.294C558.272,880.191 539.015,879.097 528.38,872.516C527.212,871.793 521.12,867.995 514.996,862.965C512.778,864.544 510.579,866.288 508.75,868.164C506.151,870.829 504.192,873.737 504.897,876.868C505.536,879.704 508.281,882.499 513.643,885.456C518.404,888.082 523.901,890.424 529.935,892.499C537.018,890.763 544.363,888.553 552.011,886.252C561.107,883.514 570.605,880.624 580.566,878.092ZM601.156,829.902C595.121,829.252 585.592,828.92 570.564,830.532C557.527,836.892 541.571,845.874 521.949,858.374C527.416,862.791 532.815,866.103 533.853,866.745C543.083,872.456 559.908,872.719 577.473,871.073C591.298,869.777 605.6,867.154 617.384,864.428C614.626,850.275 608.193,837.378 603.72,832.231C602.968,831.366 602.109,830.592 601.156,829.902ZM596.881,819.762C599.75,820.59 602.386,821.651 604.727,822.971C606.749,823.251 608.319,823.545 609.536,823.769C617.966,825.326 629.22,828.34 640.614,832.373C635.972,826.762 630.276,821.987 626.388,819.773C622.406,817.504 615.591,814.029 596.881,819.762ZM515.929,852.951C527.759,845.404 538.305,839.105 547.715,833.864C536.972,835.784 524.423,838.454 509.767,842.122C509.509,844.18 510.689,846.414 512.301,848.676C513.328,850.118 514.568,851.554 515.929,852.951ZM606.88,905.324C615.462,898.669 618.509,888.87 618.712,878.643C590.377,881.07 565.661,890.142 543.451,896.501C562.857,901.448 585.606,904.252 606.88,905.324ZM614.161,832.257C618.512,839.05 623.505,850.2 626.046,862.294C633.609,860.308 639.38,858.44 642.161,857.18C648.849,854.15 649.372,848.958 647.441,843.608C647.357,843.378 647.27,843.147 647.179,842.916C635.915,838.261 623.903,834.543 614.161,832.257ZM516.231,895.213C513.516,894.026 510.954,892.776 508.568,891.46C500.513,887.018 497.001,882.429 496.042,878.169C495.095,873.959 496.58,869.881 499.508,866.136C501.965,862.994 505.475,860.086 509.007,857.556C507.312,855.844 505.764,854.075 504.5,852.302C502.59,849.62 501.333,846.909 500.925,844.31C493.912,846.058 482.781,848.989 473.987,852.274C469.252,854.042 465.199,855.812 463.307,857.641C461.141,859.735 460.244,862.601 460.157,865.591C460.012,870.509 462.086,875.817 465.576,879.31C481.276,895.021 497.886,897.785 516.231,895.213ZM657.433,847.543C657.936,853.968 654.961,859.717 646.563,863.521C643.352,864.975 636.359,867.225 627.244,869.569C627.296,870.01 627.343,870.451 627.387,870.892C644.678,870.304 663.231,872.243 683.255,878.475C683.255,873.417 682.322,868.655 680.643,865.41C677.387,859.116 668.725,853.226 658.357,848.003C658.05,847.849 657.743,847.696 657.433,847.543ZM682.543,886.07C682.019,885.895 681.496,885.724 680.973,885.558C661.888,879.496 644.203,877.58 627.718,878.11C627.607,888.283 624.906,898.071 618.231,905.738C642.095,906.273 662.806,904.624 672.657,901.086C677.306,899.417 679.933,895.034 681.532,890.05C681.946,888.761 682.281,887.427 682.543,886.07Z" style="fill:rgb(235,235,235);"/>
        </g>
    </g>
</svg>
